<?xml version="1.0" encoding="utf-8"?>
<!-- Generator: Adobe Illustrator 25.4.1, SVG Export Plug-In . SVG Version: 6.00 Build 0)  -->
<svg version="1.1" id="Calque_1" xmlns="http://www.w3.org/2000/svg" xmlns:xlink="http://www.w3.org/1999/xlink" x="0px" y="0px"
	 viewBox="0 0 64 64" style="enable-background:new 0 0 64 64;" xml:space="preserve">
<style type="text/css">
	.st0{fill:none;stroke:#FFFFFF;stroke-width:2;stroke-miterlimit:10;}
</style>
<desc>A line styled icon from Orion Icon Library.</desc>
<desc>A line styled icon from Orion Icon Library.</desc>
<g>
	<path class="st0" d="M12,25.7v-4c0-11,8-20,19-20h2c11,0,19,9,19,20v4 M40,57.7c0-2.2-1.8-4-4-4h-4c-2.2,0-4,1.8-4,4s1.8,4,4,4h4
		C38.2,61.7,40,59.9,40,57.7z M40,57.7c0,0,12,0,12-14"/>
	<path class="st0" d="M16,43.7H7.6c-2,0-3.6-1.6-3.6-3.6V29.3c0-2,1.6-3.6,3.6-3.6h0H16V43.7z M48,43.7h8.4c2,0,3.6-1.6,3.6-3.6
		V29.3c0-2-1.6-3.6-3.6-3.6H48V43.7z"/>
</g>
</svg>
