<?xml version="1.0" encoding="utf-8"?>
<!-- Generator: Adobe Illustrator 22.0.0, SVG Export Plug-In . SVG Version: 6.00 Build 0)  -->
<svg version="1.1" id="Calque_1" xmlns="http://www.w3.org/2000/svg" xmlns:xlink="http://www.w3.org/1999/xlink" x="0px" y="0px"
	 viewBox="0 0 41 22" style="enable-background:new 0 0 41 22;" xml:space="preserve">
<style type="text/css">
	.st0{fill:#FFFFFF;}
</style>
<g>
	<g>
		<path class="st0" d="M20.5,2.1l6.9,4.7l0,0H41l-2.2-5.5H10.6V0.9H11V0H6.4v0.9h0.3v0.5H2.2L0,6.9h13.5L20.5,2.1z M38.5,1.8
			l1.9,4.7H27.6l-6.9-4.7H38.5z M0.5,6.5l1.9-4.7h4.6V0.6H6.7V0.4h3.9v0.2h-0.4v1.2h10.1l-6.9,4.7H0.5z M20.5,2.2l-6.9,4.7H2V22h37
			V6.9H27.4L20.5,2.2z M13.4,21.6H2.8V7.4h10.6V21.6z M20.1,21.6h-3.2v-5.8h3.2V21.6z M24.1,21.6h-3.2v-5.8h3.2V21.6z M26.7,21.6
			h-1.8v-6.3h-8.8v6.3h-1.8V7.2L20.5,3l6.2,4.3V21.6z M27.6,7.4h10.6v14.2H27.6V7.4z M17.7,6.4c0,0.8,1.2,1.5,2.8,1.5
			c1.5,0,2.8-0.7,2.8-1.5c0-0.8-1.2-1.5-2.8-1.5C19,4.9,17.7,5.6,17.7,6.4z M22.5,6.4c0,0.6-0.9,1-2,1s-2-0.5-2-1c0-0.6,0.9-1,2-1
			S22.5,5.8,22.5,6.4z M17.4,13.4h6.2V8.9h-6.2V13.4z M20.9,9.4h1.9v0.8h-1.9V9.4z M20.9,10.5h1.9V13h-1.9V10.5z M18.2,9.4h1.9v0.8
			h-1.9V9.4z M18.2,10.5h1.9V13h-1.9V10.5z M29.8,13.4H36V8.9h-6.2V13.4z M33.3,9.4h1.9v0.8h-1.9V9.4z M33.3,10.5h1.9V13h-1.9V10.5z
			 M30.7,9.4h1.9v0.8h-1.9V9.4z M30.7,10.5h1.9V13h-1.9V10.5z M29.8,19.9H36v-4.5h-6.2V19.9z M33.3,15.8h1.9v0.8h-1.9V15.8z
			 M33.3,17h1.9v2.5h-1.9V17z M30.7,15.8h1.9v0.8h-1.9V15.8z M30.7,17h1.9v2.5h-1.9V17z M11.2,8.9H5v4.5h6.2V8.9z M7.7,13H5.8v-2.5
			h1.9V13z M7.7,10.1H5.8V9.4h1.9V10.1z M10.3,13H8.5v-2.5h1.9V13z M10.3,10.1H8.5V9.4h1.9V10.1z M11.2,15.3H5v4.5h6.2V15.3z
			 M7.7,19.4H5.8V17h1.9V19.4z M7.7,16.5H5.8v-0.8h1.9V16.5z M10.3,19.4H8.5V17h1.9V19.4z M10.3,16.5H8.5v-0.8h1.9V16.5z"/>
	</g>
</g>
</svg>
