<?xml version="1.0" encoding="utf-8"?>
<!-- Generator: Adobe Illustrator 22.0.0, SVG Export Plug-In . SVG Version: 6.00 Build 0)  -->
<svg version="1.1" id="Calque_1" xmlns="http://www.w3.org/2000/svg" xmlns:xlink="http://www.w3.org/1999/xlink" x="0px" y="0px"
	 viewBox="0 0 32 23" style="enable-background:new 0 0 32 23;" xml:space="preserve">
<style type="text/css">
	.st0{fill:#FFFFFF;}
</style>
<path class="st0" d="M6.7,0C5.5,0,4.5,1,4.5,2.2v4.7c0,0.2,0.2,0.4,0.4,0.4C5,7.2,5.2,7,5.2,6.8c0,0,0,0,0,0V5h26v12.2
	c0,0.8-0.7,1.4-1.5,1.4H12.3c-0.2,0-0.4,0.2-0.4,0.4c0,0.2,0.2,0.4,0.4,0.4c0,0,0,0,0,0h17.5c1.2,0,2.2-1,2.2-2.2V2.2
	C32,1,31,0,29.8,0H6.7z M6.7,0.7h23.1c0.8,0,1.5,0.6,1.5,1.4v2.2h-26V2.2C5.2,1.4,5.9,0.7,6.7,0.7z M4.8,9.3c-1.1,0-1.9,0.2-2.5,0.6
	c-0.6,0.4-0.8,1-0.8,1.6v2.3c-0.9,0.3-1.5,1.1-1.5,2v5C0,22,1,23,2.2,23h5.2c1.2,0,2.2-1,2.2-2.2v-5c0-0.9-0.6-1.7-1.5-2v-2.3
	c0-0.6-0.3-1.2-0.8-1.6C6.8,9.5,6,9.3,4.8,9.3z M4.8,10.1c1,0,1.7,0.2,2.1,0.4c0.4,0.3,0.5,0.6,0.5,1v2.2H2.2v-2.2
	c0-0.4,0.1-0.7,0.5-1C3.1,10.2,3.8,10.1,4.8,10.1z M2.2,14.4h5.2c0.8,0,1.5,0.6,1.5,1.4v5c0,0.8-0.7,1.4-1.5,1.4H2.2
	c-0.8,0-1.5-0.6-1.5-1.4v-5C0.7,15,1.4,14.4,2.2,14.4z M4.8,16.9c-0.8,0-1.5,0.6-1.5,1.4c0,0.8,0.7,1.4,1.5,1.4
	c0.8,0,1.5-0.6,1.5-1.4C6.3,17.5,5.7,16.9,4.8,16.9z M4.8,17.6c0.4,0,0.7,0.3,0.7,0.7c0,0.4-0.3,0.7-0.7,0.7c-0.4,0-0.7-0.3-0.7-0.7
	C4.1,17.9,4.4,17.6,4.8,17.6z"/>
</svg>
