<?xml version="1.0" encoding="utf-8"?>
<!-- Generator: Adobe Illustrator 22.0.0, SVG Export Plug-In . SVG Version: 6.00 Build 0)  -->
<svg version="1.1" id="Calque_1" xmlns="http://www.w3.org/2000/svg" xmlns:xlink="http://www.w3.org/1999/xlink" x="0px" y="0px"
	 viewBox="0 0 27 26" style="enable-background:new 0 0 27 26;" xml:space="preserve">
<style type="text/css">
	.st0{fill:#FFFFFF;}
</style>
<g>
	<g>
		<path class="st0" d="M26.7,9.4c0.2,0,0.3-0.1,0.3-0.3V6.8c0-0.2-0.1-0.3-0.3-0.3H19V3h0.9c0.2,0,0.3-0.1,0.3-0.3V0.3
			C20.1,0.1,20,0,19.8,0H0.3C0.1,0,0,0.1,0,0.3v2.4C0,2.8,0.1,3,0.3,3h0.9v13.6H0.3c-0.2,0-0.3,0.1-0.3,0.3v2.4
			c0,0.2,0.1,0.3,0.3,0.3H8V23H7.2c-0.2,0-0.3,0.1-0.3,0.3v2.4C6.9,25.9,7,26,7.2,26h19.5c0.2,0,0.3-0.1,0.3-0.3v-2.4
			c0-0.2-0.1-0.3-0.3-0.3h-0.9V9.4H26.7z M0.6,2.4V0.6h19v1.8h-3.2c0,0,0,0,0,0H0.6z M14.4,19.5h5.4c0.2,0,0.3-0.1,0.3-0.3v-2.4
			c0-0.2-0.1-0.3-0.3-0.3H19v-2.3l4-4.4V23H11.3L14.4,19.5z M10.9,22.6v-3.1h2.7L10.9,22.6z M19,13.4v-4h3.6L19,13.4z M18.4,3v13.6
			h-1.7V3H18.4z M16.1,3.4v13.1H4.4L16.1,3.4z M4,16.1V3h11.7L4,16.1z M3.4,3v13.6H1.7V3H3.4z M0.6,18.9v-1.8h19v1.8H0.6z
			 M10.3,19.5V23H8.6v-3.5H10.3z M26.4,23.6v1.8h-19v-1.8H26.4z M23.6,23V9.4h1.7V23H23.6z M23.3,8.9C23.3,8.9,23.3,8.9,23.3,8.9H19
			V7.1h7.5v1.8H23.3z M5.9,5.3C5.9,5.4,6,5.4,5.9,5.3C6,5.4,6.1,5.4,6.1,5.4c0,0,0.1,0,0.1,0c0,0,0.1,0,0.1-0.1c0,0,0-0.1,0.1-0.1
			c0,0,0-0.1,0-0.1c0,0,0-0.1,0-0.1c0,0,0-0.1-0.1-0.1c0,0-0.1,0-0.1-0.1c-0.1,0-0.2,0-0.3,0.1c0,0,0,0.1-0.1,0.1c0,0,0,0.1,0,0.1
			C5.8,5.2,5.8,5.2,5.9,5.3C5.9,5.3,5.9,5.3,5.9,5.3z M14.2,14.2C14.2,14.1,14.1,14.1,14.2,14.2c-0.2-0.1-0.2-0.1-0.3-0.1
			c0,0-0.1,0-0.1,0.1c0,0,0,0.1-0.1,0.1c0,0,0,0.1,0,0.1c0,0.1,0,0.2,0.1,0.2c0.1,0.1,0.1,0.1,0.2,0.1c0.1,0,0.1,0,0.2-0.1
			c0,0,0-0.1,0.1-0.1c0,0,0-0.1,0-0.1c0,0,0-0.1,0-0.1C14.2,14.2,14.2,14.2,14.2,14.2z M21.4,21c-0.1,0-0.2,0-0.3,0.1
			C21,21.2,21,21.2,21,21.3c0,0,0,0.1,0,0.1c0,0,0,0.1,0.1,0.1c0,0,0.1,0.1,0.1,0.1c0,0,0.1,0,0.1,0c0,0,0.1,0,0.1,0
			c0,0,0.1,0,0.1-0.1c0,0,0.1-0.1,0.1-0.1c0,0,0-0.1,0-0.1C21.6,21.2,21.6,21.2,21.4,21C21.5,21.1,21.4,21.1,21.4,21z"/>
	</g>
</g>
</svg>
